<?xml version="1.0" encoding="UTF-8"?>
<svg id="Ebene_1" xmlns="http://www.w3.org/2000/svg" version="1.1" viewBox="0 0 254.6 254.6">
  <!-- Generator: Adobe Illustrator 29.1.0, SVG Export Plug-In . SVG Version: 2.1.0 Build 142)  -->
  <defs>
    <style>
      .st0 {
        fill: #f4f4f3;
      }
    </style>
  </defs>
  <path class="st0" d="M127.3,249c-67.1,0-121.6-54.6-121.6-121.7S60.2,5.7,127.3,5.7s121.7,54.6,121.7,121.7-54.6,121.7-121.7,121.7ZM127.3,16.9c-60.8,0-110.4,49.5-110.4,110.4s49.5,110.3,110.4,110.3,110.3-49.5,110.3-110.3S188.1,16.9,127.3,16.9Z"/>
  <g>
    <rect class="st0" x="159.5" y="121.7" width="86" height="11.3"/>
    <rect class="st0" x="9.1" y="121.7" width="86" height="11.3"/>
  </g>
  <path class="st0" d="M127.3,164.2c-20.3,0-36.8-16.5-36.8-36.8s16.5-36.9,36.8-36.9,36.9,16.5,36.9,36.9-16.5,36.8-36.9,36.8ZM127.3,101.8c-14.1,0-25.5,11.5-25.5,25.6s11.5,25.5,25.5,25.5,25.5-11.5,25.5-25.5-11.5-25.6-25.5-25.6Z"/>
</svg>